<?xml version="1.0" encoding="UTF-8"?>
<svg id="uuid-4a615506-fdb1-47cf-ac74-5abffdc61ece" data-name="Layer 2" xmlns="http://www.w3.org/2000/svg" viewBox="0 0 100 56">
  <path d="M20.39,24.25l-4.46,3.24c.35.41.56.94.59,1.49.03.5-.08,1-.34,1.43l4.94,2.39s.99-1.71.82-4.27c-.1-1.55-.64-3.04-1.55-4.29ZM31.86,29.43c-.06-2.06-.78-3.1-2.18-3.1s-2.12,1.02-2.2,3.1c-.02,2.17.68,3.27,2.16,3.27s2.21-1.09,2.21-3.27h0ZM34.5,29.55c0,3.57-1.59,5.38-4.78,5.44-3.21.02-4.82-1.58-4.82-4.82v-9.12h1.22c.35,0,.68.13.93.38.25.25.39.59.39.95v3.21c.65-1.05,1.77-1.68,2.96-1.68,2.74.1,4.1,1.97,4.1,5.62ZM36.73,24.48c.84,0,1.26.43,1.26,1.31v9.2h-2.61v-10.51h1.35ZM35.37,23.31v-2.31h1.36c.86,0,1.28.45,1.26,1.33v.98M50.52,28.29h3.95c-.05-.73-.23-1.27-.54-1.62-.33-.38-.81-.57-1.43-.57-.52-.02-1.03.18-1.4.57-.36.38-.55.92-.57,1.62h0ZM49.01,33.47c-.83-.97-1.24-2.36-1.24-4.17s.4-3.08,1.2-4.05c.83-1,1.98-1.5,3.45-1.5,1.55,0,2.75.49,3.6,1.46.83,1,1.24,2.39,1.24,4.17,0,.24-.01.49-.04.73h-6.7c.03.84.22,1.46.58,1.86.34.43.84.65,1.51.65,1.23,0,1.67-.84,1.84-.97.21-.15.46-.22.72-.21h1.94c-.28,1.13-.83,2-1.63,2.59-.8.62-1.81.93-3.02.93-1.48,0-2.63-.49-3.45-1.49h0ZM87.21,28.29h3.95c-.05-.73-.23-1.27-.54-1.62-.33-.38-.81-.57-1.43-.57-.52-.02-1.03.18-1.4.57-.36.38-.55.92-.58,1.62ZM85.49,33.47c-.82-.97-1.24-2.36-1.24-4.17,0-1.73.4-3.08,1.2-4.05.83-1,1.98-1.5,3.45-1.5,1.55,0,2.75.49,3.6,1.46.83,1,1.24,2.39,1.24,4.17,0,.24-.01.49-.04.73h-6.7c.03.84.22,1.46.58,1.86.34.43.84.65,1.51.65,1.23-.02,1.67-.84,1.84-.97.21-.15.46-.22.72-.21h1.94c-.29,1.13-.83,2-1.63,2.59-.8.62-1.81.93-3.02.93-1.48,0-2.63-.49-3.45-1.49ZM83.61,34.96h-2.53v-13.93h1.21c.35,0,.68.13.93.39.25.25.39.59.39.95v12.59ZM77.9,29.34c-.48.23-.99.41-1.51.53l-.89.2c-.37.09-.72.27-1.01.52-.17.26-.26.57-.27.89-.02.36.11.71.35.97.23.22.57.32,1.01.32.72,0,1.29-.22,1.71-.65.42-.43.62-1.03.62-1.78v-1ZM74.56,26.75h-2.59c.09-.81.48-1.55,1.09-2.06.7-.62,1.69-.93,2.99-.93,1.45,0,2.54.26,3.26.77.73.5,1.16,1.36,1.12,2.27v3.68c0,1.08-.19,1.92-.56,2.53-.32.56-.78,1.01-1.34,1.32-.54.29-1.13.48-1.73.55-.53.06-1.07.1-1.61.1-.87.02-1.73-.26-2.44-.79-.7-.53-1.05-1.4-1.05-2.61,0-1.13.32-1.94.95-2.43.72-.52,1.55-.85,2.42-.97.13,0,.85-.13,1.09-.16,1.14-.16,1.71-.52,1.71-1.05,0-.4-.2-.67-.6-.79-.67-.22-1.4-.23-2.07-.02-.28.1-.5.32-.62.6h0ZM60.19,34.95l-2.91-11.18h2.74s1.67,7.75,1.67,7.75l1.34-6.72c.16-.67.59-1.01,1.29-1h1.55l1.43,7.73,1.51-6.71c.16-.67.59-1.01,1.29-1h1.77l-2.96,11.16h-2.82s-1.52-7.77-1.52-7.77l-1.56,7.75h-2.82ZM40.34,21h-1.24v13.99h2.57v-4.22c-.02-.28.17-.53.44-.57.36,0,.71.33,1.07.98l1.97,3.81h3.35l-3.87-6.87,3.83-4.29h-3.35l-3.43,4.11v-5.53c0-.78-.6-1.41-1.34-1.42ZM13.97,27.55c-.87.08-1.51.88-1.43,1.79.08.91.84,1.57,1.71,1.49.87-.08,1.51-.88,1.43-1.78-.04-.44-.24-.84-.56-1.12-.32-.28-.74-.42-1.15-.38ZM13.31,26.81c-.98.34-1.64,1.3-1.63,2.38,0,.94.5,1.8,1.3,2.24.8.43,1.76.37,2.5-.17l5.13,2.5s-.22.34-.37.53c-.37.49-.96.76-1.55.71h-9.2c-.69,0-1.18-.21-1.68-.9-1.03-1.41-1.58-3.13-1.56-4.9.11-5.2,4.06-8.19,7.85-8.19,2.14-.01,4.19.9,5.66,2.52l-4.64,3.39c-.57-.28-1.22-.32-1.81-.1Z" fill="#fff" stroke-width="0"/>
</svg>