<?xml version="1.0" encoding="UTF-8"?>
<svg id="uuid-c9393f4d-9c93-4066-ac0d-78db1cdd9745" data-name="Layer 2" xmlns="http://www.w3.org/2000/svg" viewBox="0 0 100 56">
  <path d="M15.2,29.69h2.43v.4c0,1.64-.33,2.7-.98,3.18-.65.48-2.1.72-4.34.71-2.47,0-4.02-.39-4.56-1.14-.54-.76-.91-2.8-.91-6.09,0-1.95.39-3.23,1.18-3.84.78-.61,2.43-.91,4.94-.92,1.83,0,3.04.25,3.65.76.61.5.91,1.5.91,2.99v.27h-2.46v-.3c.08-.54-.09-1.08-.47-1.48-.68-.28-1.42-.4-2.15-.33-1.5,0-2.41.17-2.74.51-.33.33-.46,1.34-.46,3.02,0,2.25.14,3.59.41,4,.27.41,1.16.62,2.67.64.8.07,1.61-.05,2.35-.34.43-.39.63-.96.54-1.51v-.53h.01ZM91,31.2h-.02c.07.38-.07.77-.36,1.05-.49.19-1.02.27-1.54.21-.59.07-1.18-.08-1.64-.41-.33-.49-.48-1.07-.41-1.64v-.37h6.14v-.61c0-1.6-.28-2.59-.83-3.17-.55-.58-1.56-.85-3.25-.85s-2.82.29-3.41.85c-.58.57-.87,1.65-.87,3.25,0,1.82.28,3.01.84,3.58.56.57,1.74.85,3.54.85,2.66,0,3.99-.81,3.99-2.43v-.32h-2.17ZM91,28.84h-3.96c-.07-.55.07-1.1.38-1.57.46-.3,1.02-.43,1.58-.36.56-.05,1.13.05,1.63.3.31.37.44.83.37,1.29v.34h0ZM82.94,22.01h-2.16v4.75c-.38-.85-1.31-1.28-2.79-1.28-.98-.1-1.96.21-2.66.85-.6.93-.86,2.01-.75,3.08,0,1.84.23,3.07.7,3.66.47.6,1.41.9,2.84.9,1.18.15,2.32-.45,2.79-1.45l-.07,1.34h2.11v-11.86h0ZM78.71,27.04c.6-.08,1.21.09,1.66.47.34.62.48,1.32.4,2.01.08.8-.04,1.61-.36,2.37-.43.42-1.05.61-1.66.51-.6.09-1.2-.11-1.61-.52-.32-.74-.44-1.53-.36-2.32-.07-.7.05-1.4.36-2.04.42-.37,1-.55,1.57-.47ZM67.9,27.94c0-.78.56-1.17,1.67-1.17.53-.06,1.07.05,1.52.32.3.37.44.84.37,1.3v1.4c-.35-.63-1.28-.95-2.79-.95-2.26,0-3.39.85-3.39,2.56s1.1,2.56,3.31,2.56c1.51,0,2.48-.41,2.92-1.24h.06l-.1,1.14h2.18v-5.46c.12-.87-.2-1.74-.86-2.37-1.02-.51-2.18-.73-3.34-.62-1.04-.09-2.09.09-3.03.51-.59.52-.87,1.26-.76,2.01h2.24ZM69.36,30.14c1.42,0,2.13.44,2.13,1.26s-.67,1.23-2,1.23c-.55.05-1.11-.04-1.61-.26-.3-.28-.44-.68-.38-1.07,0-.78.62-1.17,1.86-1.17M57.85,25.55v8.41h2.01v-4.92c0-1.33.5-2,1.51-2,.71,0,1.06.45,1.06,1.35v.44h1.92v-.62c0-1.86-.75-2.79-2.25-2.79-1-.05-1.93.47-2.34,1.31l.13-1.18h-2.05ZM29.05,25.55v8.41h2.29v-4.92c0-1.33.57-2,1.73-2,.81,0,1.21.45,1.21,1.35v.44h2.2v-.62c0-1.86-.86-2.79-2.57-2.79-1.07-.07-2.1.44-2.62,1.31h-.06l.14-1.18h-2.33ZM21.44,27.94c0-.78.56-1.17,1.67-1.17.53-.06,1.07.05,1.52.32.3.37.44.84.37,1.3v1.4c-.35-.63-1.28-.95-2.79-.95-2.26,0-3.39.85-3.39,2.56s1.11,2.56,3.32,2.56c1.5,0,2.47-.41,2.91-1.24h.06l-.1,1.14h2.18v-5.46c.12-.87-.2-1.74-.86-2.37-1.02-.51-2.18-.73-3.34-.62-1.04-.09-2.09.09-3.03.51-.59.52-.87,1.26-.76,2.01h2.24ZM22.89,30.14c1.43.02,2.13.44,2.13,1.26,0,.82-.67,1.23-2,1.23-.55.05-1.11-.04-1.61-.26-.3-.28-.44-.68-.38-1.07,0-.78.62-1.17,1.86-1.17M51.88,24.62h-4.21v10.24h-2.68v-10.24h-4.08v-2.1h10.96v2.1ZM46.13,18.41c-5.17.14-9.32,4.38-9.32,9.59s4.3,9.59,9.59,9.59,9.59-4.3,9.59-9.59-4.3-9.59-9.59-9.59h-.27Z" fill="#fff" stroke-width="0"/>
</svg>