<?xml version="1.0" encoding="UTF-8"?>
<svg id="uuid-c065b8bc-e5e9-47c5-bab4-02ecb13b3701" data-name="Layer 2" xmlns="http://www.w3.org/2000/svg" viewBox="0 0 100 56">
  <path d="M35.79,31.68c-.12.1-.23.21-.32.33l-.22.22c-.06.07-.14.12-.22.15-.36.2-.77.3-1.18.3h-.19c-.54-.02-1.05-.26-1.41-.66-.58-.77-.84-1.73-.76-2.68-.08-.97.19-1.93.76-2.72.38-.37.88-.58,1.41-.58h.2c.52,0,1.03.21,1.4.58l.07.08h3.05c-.21-.57-.51-1.1-.9-1.57-1-1.02-2.4-1.56-3.83-1.48-1.39-.07-2.74.49-3.67,1.53-.93,1.16-1.39,2.63-1.28,4.11-.1,1.53.37,3.04,1.31,4.24.94,1.02,2.28,1.58,3.67,1.53h.2c1.11.02,2.19-.32,3.1-.96.86-.64,1.47-1.57,1.71-2.61h-2.2c-.24,0-.47.07-.66.21l-.04-.02ZM86.36,28.27h4.21c0-.6-.22-1.19-.6-1.66-.37-.37-.88-.58-1.41-.58h-.19c-.53,0-1.03.2-1.41.57-.39.43-.61,1-.61,1.58v.08h.01ZM91.31,31.52h2.07c-.24,1.05-.85,1.98-1.71,2.62-.88.62-1.94.95-3.02.95h-.2c-1.39.07-2.75-.49-3.68-1.53-.94-1.21-1.4-2.72-1.31-4.24-.09-1.48.36-2.95,1.28-4.11.93-1.03,2.28-1.59,3.67-1.53,1.43-.08,2.83.46,3.84,1.48.97,1.19,1.44,2.71,1.31,4.24v.4s0,.04,0,.06c.01.08.01.17,0,.25h-7.09c-.03.68.19,1.35.61,1.89.37.42.91.66,1.47.66h.19c.41,0,.82-.09,1.18-.3.09-.02.18-.07.24-.14l.22-.22c.07-.13.17-.25.3-.33.2-.14.44-.21.69-.2h.01l-.06.05ZM79.99,20.88h1.31c.36,0,.71.14.97.39.26.24.42.59.41.95v12.85h-2.7v-14.19ZM76.57,29.34c-.5.23-1.02.4-1.55.52l-.95.2c-.4.1-.77.29-1.08.56-.18.26-.29.58-.3.9,0,.35.13.68.38.92.27.22.61.34.96.33h.25c.6,0,1.17-.21,1.62-.6.42-.45.66-1.05.66-1.67,0-.05,0-.1,0-.15v-1.01ZM77.24,34.4c-.57.3-1.18.49-1.82.56-.56.07-1.13.1-1.69.11h-.09c-.91,0-1.8-.28-2.53-.82-.79-.65-1.21-1.64-1.11-2.66-.09-.94.29-1.86,1.01-2.47.76-.53,1.64-.86,2.55-.98.17,0,.34-.02.51-.06l.66-.09c1.18-.17,1.81-.53,1.81-1.08,0-.38-.27-.7-.64-.77-.38-.11-.78-.18-1.18-.19-.34,0-.68.06-1.01.18-.29.11-.53.33-.66.61h-2.78c.1-.83.52-1.58,1.18-2.09.91-.69,2.04-1.03,3.18-.96,1.2-.08,2.41.19,3.45.79.74.49,1.19,1.32,1.18,2.21v3.85c.05.9-.15,1.79-.59,2.58-.33.55-.81,1.01-1.37,1.32l-.06-.05ZM68.28,23.69c-.65-.07-1.25.37-1.36,1.02l-1.57,6.85-1.54-7.86h-1.66c-.65-.07-1.25.38-1.36,1.03l-1.36,6.85-1.87-7.88h-2.86l3.12,11.37h3l1.63-7.9,1.64,7.9h2.99l3.12-11.37h-1.94ZM45.98,29.4c-.5.23-1.02.4-1.56.52l-.95.2c-.4.09-.77.28-1.08.56-.18.26-.29.58-.3.9,0,.35.13.68.38.92.27.22.61.34.96.33h.25c.61,0,1.19-.25,1.63-.66.43-.45.67-1.05.66-1.67v-1.1ZM46.65,34.46c-.56.3-1.18.49-1.81.56-.57.07-1.13.1-1.7.11h-.09c-.91-.01-1.8-.32-2.52-.88-.79-.64-1.21-1.64-1.11-2.66-.09-.94.28-1.86,1.01-2.47.76-.53,1.63-.86,2.54-.98.17,0,.34-.02.51-.06l.65-.09c1.18-.17,1.82-.53,1.82-1.08,0-.38-.27-.7-.64-.77-.38-.11-.78-.18-1.18-.19-.34,0-.68.06-1.01.18-.29.11-.53.33-.66.61h-2.77c.1-.83.52-1.59,1.18-2.1.91-.69,2.03-1.02,3.17-.95,1.21-.08,2.41.19,3.46.78.74.49,1.18,1.32,1.18,2.21v3.84c.05.9-.16,1.79-.59,2.58-.33.56-.81,1.01-1.38,1.32l-.06.04ZM53.82,23.89l-.69.15c-.7.18-1.35.51-1.92.95-.59.47-1.05,1.08-1.34,1.77-.33.83-.5,1.71-.5,2.6v5.73h2.96v-5.91c-.06-.68.16-1.35.59-1.88.43-.38.99-.59,1.56-.59h.07l-.74-2.83ZM9.9,29.37v-.06c0-1.3.14-2.59.4-3.87v.13c-.93-.4-2.12-.91-2.23-.92-.34,0-.63,0-.92.65-.52,1.29-.76,2.68-.71,4.07-.05,1.39.19,2.78.71,4.07.3.66.59.7.92.66.12,0,1.3-.52,2.23-.92-.25-1.23-.38-2.49-.38-3.75l-.02-.06ZM24.59,24.8c-.33-.74-.65-.8-1.04-.73-.39.07-1.74.74-3.55,1.37.28,1.25.42,2.53.41,3.82v.22c0,1.32-.15,2.65-.44,3.94v-.12c1.83.63,3.06,1.28,3.55,1.37.48.09.71,0,1.04-.73.57-1.45.84-3.01.78-4.56.06-1.56-.21-3.11-.78-4.56h.02ZM15.13,35.07h6.8c-2.01-1.33-4.39-1.97-6.8-1.84-2.41-.13-4.8.52-6.81,1.84h6.81ZM15.13,23.67h6.8c-2.01,1.33-4.39,1.97-6.8,1.84-2.41.13-4.79-.52-6.8-1.84h6.8Z" fill="#fff" stroke-width="0"/>
</svg>