<?xml version="1.0" encoding="UTF-8"?>
<svg id="uuid-59b688a4-f39d-4894-b9f1-42fa3dddf50d" data-name="Layer 2" xmlns="http://www.w3.org/2000/svg" viewBox="0 0 100 56">
  <path d="M90.25,38.69l-3.52-4.24v4.24h-1.61v-9.04h1.61v4.45l3.35-4.45h1.98l-3.45,4.52,3.76,4.52h-2.12ZM79.31,31.14c-.37-.01-.73.08-1.06.25-.32.17-.62.39-.89.64-.24.28-.44.61-.58.96-.27.73-.27,1.55,0,2.28.14.35.34.68.58.96.24.28.55.5.89.64.33.17.69.25,1.06.25.37.01.73-.08,1.06-.25.32-.17.62-.39.89-.64.24-.28.44-.61.58-.96.27-.73.27-1.55,0-2.28-.14-.35-.34-.68-.58-.96-.24-.28-.55-.5-.89-.64-.33-.17-.69-.25-1.06-.25ZM79.31,38.69c-.58,0-1.15-.11-1.67-.36-1.05-.45-1.89-1.32-2.32-2.42-.48-1.13-.48-2.42,0-3.56.44-1.1,1.27-1.97,2.32-2.42.53-.24,1.1-.36,1.67-.36.59,0,1.17.12,1.71.36,1.04.47,1.88,1.33,2.32,2.42.48,1.13.48,2.42,0,3.56-.44,1.1-1.27,1.97-2.32,2.42-.54.24-1.12.36-1.71.36ZM69.54,31.14c-.37-.01-.73.08-1.06.25-.66.32-1.19.9-1.47,1.6-.31.73-.31,1.55,0,2.28.14.35.34.68.58.96.24.28.55.5.89.64.33.17.69.25,1.06.25.37.01.73-.08,1.06-.25.33-.17.63-.4.89-.68.24-.28.44-.61.58-.96.27-.73.27-1.55,0-2.28-.14-.35-.34-.68-.58-.96-.24-.28-.55-.5-.89-.64-.33-.15-.7-.22-1.06-.21ZM69.54,38.69c-.58,0-1.15-.11-1.67-.36-1.05-.45-1.89-1.32-2.32-2.42-.44-1.14-.44-2.42,0-3.56.44-1.1,1.27-1.97,2.32-2.42,1.08-.46,2.3-.46,3.38,0,.52.24.99.58,1.4,1,.39.43.7.92.92,1.46.44,1.14.44,2.42,0,3.56-.44,1.1-1.27,1.97-2.32,2.42-.55.21-1.12.32-1.71.32ZM65.07,37.19v1.49h-6.05v-9.04h1.61v7.54h4.44ZM57.89,31.14h-2.39v7.54h-1.61v-7.54h-2.43v-1.49h6.42v1.49ZM46.86,38.69c-.5,0-1-.07-1.47-.25-.42-.17-.8-.43-1.13-.75-.33-.32-.57-.73-.72-1.17-.18-.49-.27-1.01-.27-1.53v-5.34h1.64v5.34c0,.38.07.75.21,1.1.13.25.31.48.51.68.19.17.41.29.65.36.4.14.83.14,1.23,0,.52-.14.94-.52,1.16-1.03.14-.35.21-.73.21-1.1v-5.34h1.61v5.34c0,.52-.07,1.04-.24,1.53-.17.43-.42.83-.72,1.17-.33.31-.71.57-1.13.75-.49.17-1.02.26-1.54.25ZM47.88,18.9c-.37-.01-.73.08-1.06.25-.33.16-.63.38-.89.64-.24.28-.44.61-.58.96-.27.73-.27,1.55,0,2.28.14.35.34.68.58.96.24.28.55.5.89.64.33.17.69.25,1.06.25.37.01.73-.08,1.06-.25.33-.16.63-.38.89-.64.24-.29.45-.61.62-.96.27-.73.27-1.55,0-2.28-.14-.35-.34-.68-.58-.96-.24-.27-.53-.49-.85-.64-.35-.17-.74-.25-1.13-.25ZM47.88,26.45c-.58,0-1.15-.11-1.67-.36-.52-.24-.99-.58-1.4-1-.41-.41-.72-.91-.92-1.46-.48-1.13-.48-2.42,0-3.56.44-1.1,1.27-1.97,2.32-2.42,1.08-.46,2.3-.46,3.38,0,1.05.45,1.89,1.32,2.32,2.42.48,1.13.48,2.42,0,3.56-.44,1.1-1.27,1.97-2.32,2.42-.53.27-1.12.4-1.71.39ZM37.46,31.14c-.37-.01-.73.08-1.06.25-.66.32-1.19.9-1.47,1.6-.27.73-.27,1.55,0,2.28.14.35.34.68.58.96.24.28.55.5.89.64.33.17.69.25,1.06.25.37.01.73-.08,1.06-.25.32-.17.62-.39.89-.64.24-.28.44-.61.58-.96.27-.73.27-1.55,0-2.28-.14-.35-.34-.68-.58-.96-.24-.29-.55-.51-.89-.65-.33-.17-.69-.26-1.06-.25h0ZM37.46,38.69c-.59,0-1.17-.12-1.71-.36-1.05-.45-1.89-1.32-2.32-2.42-.48-1.13-.48-2.42,0-3.56.44-1.1,1.27-1.97,2.32-2.42,1.08-.46,2.3-.46,3.38,0,.53.23,1,.57,1.4,1,.4.42.71.91.92,1.46.48,1.13.48,2.42,0,3.56-.43,1.09-1.25,1.95-2.29,2.42-.55.22-1.12.32-1.71.32ZM92.36,17.37c-.24.39-.48.82-.75,1.32l-.89,1.49c-.31.5-.61,1.03-.89,1.49-.27.46-.55.93-.79,1.35v3.45h-1.67v-3.45c-.51-.96-1.06-1.89-1.64-2.81-.58-.93-1.13-1.89-1.67-2.81h1.95c.34.64.72,1.28,1.09,1.92.38.64.75,1.32,1.09,1.92.17-.28.34-.61.55-.93l.58-1c.2-.32.38-.68.58-1,.21-.32.38-.64.55-.93l1.91-.04ZM83.38,18.89h-2.49v7.54h-1.67v-7.53h-2.49v-1.57h6.66v1.55ZM75.45,26.43h-1.67v-9.06h1.67v9.06ZM72.48,24.9v1.53h-6.25v-9.1h1.67v7.54h4.58v.02ZM64.08,26.43h-1.67v-9.06h1.67v9.06ZM57.93,24.9c.14,0,.28-.04.41-.11.13-.07.24-.17.34-.28.1-.12.18-.25.24-.39.06-.13.08-.28.07-.43-.01-.3-.13-.58-.34-.78-.25-.21-.57-.32-.89-.32h-2.19v2.31h2.36ZM55.57,21.06h2.05c.15,0,.31-.04.44-.11.12-.05.23-.14.31-.25.08-.11.14-.23.2-.36.04-.13.06-.26.07-.39,0-.13-.03-.26-.07-.39-.04-.12-.11-.23-.2-.32-.07-.1-.16-.18-.27-.21-.1-.07-.22-.1-.34-.07h-2.15l-.03,2.1ZM60.28,19.9c0,.2-.03.39-.1.57-.07.21-.17.4-.31.57-.12.17-.27.31-.44.43-.17.11-.38.17-.58.18.22.02.44.08.65.18.21.11.41.25.58.43.17.19.31.41.41.64.11.25.16.51.17.78,0,.42-.07.85-.2,1.25-.14.32-.34.61-.58.85-.25.21-.54.37-.85.46-.34.1-.7.15-1.06.14h-4.03v-9.04h3.83c.33,0,.66.04.99.11.3.06.58.19.82.39.25.2.44.47.55.78.11.42.17.85.17,1.28ZM41.9,17.37v9.08h-1.67v-4.59l-2.73,3.42-2.7-3.42v4.59h-1.67v-9.08h.1l4.27,5.23,4.3-5.23h.1ZM22.63,22.99v10h-9.6v-10h2.25l2.56,2.67,2.56-2.67h2.22ZM13.85,38.62l3.96-4.16h-6.18v-6.48l-4,4.16v6.48M17.82,34.45l4,4.16h6.22v-6.48l-4-4.16v6.48h-6.22ZM17.82,21.5l-3.96-4.13h-6.22v6.48l4,4.16v-6.51h6.18ZM21.81,17.37l-4,4.13h6.22v6.48l4-4.16v-6.44" fill="#fff" stroke-width="0"/>
</svg>