<svg version="1.1" xmlns="http://www.w3.org/2000/svg" width="1024" height="1024" viewBox="0 0 1024 1024">
<g id="icomoon-ignore">
</g>
<path fill="#fff" d="M944.347 374.321h-85.13l-49.911 50.665-49.911-50.665h-85.13v88.144l49.158 49.911-49.158 49.911v87.014h86.449l48.781-49.534 48.781 49.534h86.449v-87.014l-49.158-49.911 49.158-49.911v-88.144h-0.377zM290.234 512c0-37.856-30.135-68.557-67.427-68.557s-67.427 30.512-67.427 68.557 30.135 68.557 67.427 68.557 67.427-30.512 67.427-68.557zM445.617 512c0 125.059-99.821 226.387-222.62 226.387s-222.997-101.516-222.997-226.387 99.821-226.387 222.62-226.387 222.997 101.139 222.997 226.387zM620.022 786.603h-128.261v-549.206h128.261v549.394z"></path>
</svg>
